<mxfile host="app.diagrams.net" modified="2023-11-15T09:52:07.780Z" agent="Mozilla/5.0 (Macintosh; Intel Mac OS X 10_15_7) AppleWebKit/537.36 (KHTML, like Gecko) Chrome/117.0.0.0 Safari/537.36" etag="7P4MVu6UnlmIK6NFF9wC" version="22.1.0" type="device">
  <diagram name="Page-1" id="E4endlTd3OSWKAbz3WQZ">
    <mxGraphModel dx="2316" dy="638" grid="1" gridSize="10" guides="1" tooltips="1" connect="1" arrows="1" fold="1" page="1" pageScale="1" pageWidth="1169" pageHeight="827" math="0" shadow="0">
      <root>
        <mxCell id="0" />
        <mxCell id="1" parent="0" />
        <mxCell id="bJ0Dz_TX7vE_drOLoEJE-43" value="" style="group;aspect=fixed;" vertex="1" connectable="0" parent="1">
          <mxGeometry x="-1140" y="190" width="70" height="77.78" as="geometry" />
        </mxCell>
        <mxCell id="bJ0Dz_TX7vE_drOLoEJE-44" value="" style="shape=note;whiteSpace=wrap;html=1;backgroundOutline=1;darkOpacity=0.05;rounded=1;size=20;strokeWidth=2;" vertex="1" parent="bJ0Dz_TX7vE_drOLoEJE-43">
          <mxGeometry x="3.888888888888889" width="62.22222222222222" height="77.78" as="geometry" />
        </mxCell>
        <mxCell id="bJ0Dz_TX7vE_drOLoEJE-45" value="&lt;font data-font-src=&quot;https://fonts.googleapis.com/css?family=Maven+Pro&quot; face=&quot;Maven Pro&quot; color=&quot;#ffffff&quot;&gt;&lt;b&gt;&lt;font style=&quot;font-size: 15px;&quot;&gt;assembly&lt;/font&gt;&lt;/b&gt;&lt;/font&gt;" style="rounded=1;whiteSpace=wrap;html=1;strokeWidth=2;fillColor=#000000;" vertex="1" parent="bJ0Dz_TX7vE_drOLoEJE-43">
          <mxGeometry y="31.112000000000002" width="70" height="31.112000000000002" as="geometry" />
        </mxCell>
        <mxCell id="bJ0Dz_TX7vE_drOLoEJE-51" value="" style="endArrow=none;html=1;rounded=1;strokeWidth=2;exitX=1;exitY=0.75;exitDx=0;exitDy=0;" edge="1" parent="1" source="bJ0Dz_TX7vE_drOLoEJE-45" target="bJ0Dz_TX7vE_drOLoEJE-91">
          <mxGeometry width="50" height="50" relative="1" as="geometry">
            <mxPoint x="-980" y="259.83" as="sourcePoint" />
            <mxPoint x="-940" y="259.83" as="targetPoint" />
          </mxGeometry>
        </mxCell>
        <mxCell id="bJ0Dz_TX7vE_drOLoEJE-52" value="bwa mem2 index" style="text;html=1;strokeColor=none;fillColor=none;align=center;verticalAlign=middle;whiteSpace=wrap;rounded=0;" vertex="1" parent="1">
          <mxGeometry x="-1010" y="204" width="60" height="30" as="geometry" />
        </mxCell>
        <mxCell id="bJ0Dz_TX7vE_drOLoEJE-54" value="generate cram csv" style="text;html=1;strokeColor=none;fillColor=none;align=center;verticalAlign=middle;whiteSpace=wrap;rounded=0;" vertex="1" parent="1">
          <mxGeometry x="-930" y="210" width="60" height="30" as="geometry" />
        </mxCell>
        <mxCell id="bJ0Dz_TX7vE_drOLoEJE-57" value="bwa mem2 + fixmate + sort" style="text;html=1;strokeColor=none;fillColor=none;align=center;verticalAlign=middle;whiteSpace=wrap;rounded=0;" vertex="1" parent="1">
          <mxGeometry x="-825" y="197" width="60" height="30" as="geometry" />
        </mxCell>
        <mxCell id="bJ0Dz_TX7vE_drOLoEJE-80" value="samtools &lt;br&gt;merge" style="text;html=1;align=center;verticalAlign=middle;resizable=0;points=[];autosize=1;strokeColor=none;fillColor=none;fontSize=11;fontFamily=Helvetica;fontColor=default;" vertex="1" parent="1">
          <mxGeometry x="-730" y="207" width="70" height="40" as="geometry" />
        </mxCell>
        <mxCell id="bJ0Dz_TX7vE_drOLoEJE-81" value="samtools &lt;br&gt;faidx" style="text;html=1;align=center;verticalAlign=middle;resizable=0;points=[];autosize=1;strokeColor=none;fillColor=none;fontSize=11;fontFamily=Helvetica;fontColor=default;" vertex="1" parent="1">
          <mxGeometry x="-1020" y="123" width="70" height="40" as="geometry" />
        </mxCell>
        <mxCell id="bJ0Dz_TX7vE_drOLoEJE-82" value="samtools &lt;br&gt;mkdup" style="text;html=1;align=center;verticalAlign=middle;resizable=0;points=[];autosize=1;strokeColor=none;fillColor=none;fontSize=11;fontFamily=Helvetica;fontColor=default;" vertex="1" parent="1">
          <mxGeometry x="-619" y="207" width="70" height="40" as="geometry" />
        </mxCell>
        <mxCell id="bJ0Dz_TX7vE_drOLoEJE-83" value="bamtobed &lt;br&gt;sort" style="text;html=1;align=center;verticalAlign=middle;resizable=0;points=[];autosize=1;strokeColor=none;fillColor=none;fontSize=11;fontFamily=Helvetica;fontColor=default;" vertex="1" parent="1">
          <mxGeometry x="-520" y="207" width="70" height="40" as="geometry" />
        </mxCell>
        <mxCell id="bJ0Dz_TX7vE_drOLoEJE-84" value="samtools view" style="text;html=1;strokeColor=none;fillColor=none;align=center;verticalAlign=middle;whiteSpace=wrap;rounded=0;" vertex="1" parent="1">
          <mxGeometry x="-410" y="212" width="60" height="30" as="geometry" />
        </mxCell>
        <mxCell id="bJ0Dz_TX7vE_drOLoEJE-86" value="samtools index" style="text;html=1;strokeColor=none;fillColor=none;align=center;verticalAlign=middle;whiteSpace=wrap;rounded=0;" vertex="1" parent="1">
          <mxGeometry x="-333" y="212" width="60" height="30" as="geometry" />
        </mxCell>
        <mxCell id="bJ0Dz_TX7vE_drOLoEJE-87" value="samtools stats" style="text;html=1;strokeColor=none;fillColor=none;align=center;verticalAlign=middle;whiteSpace=wrap;rounded=0;" vertex="1" parent="1">
          <mxGeometry x="-180" y="123" width="60" height="30" as="geometry" />
        </mxCell>
        <mxCell id="bJ0Dz_TX7vE_drOLoEJE-88" value="samtools flagstat" style="text;html=1;strokeColor=none;fillColor=none;align=center;verticalAlign=middle;whiteSpace=wrap;rounded=0;" vertex="1" parent="1">
          <mxGeometry x="-180" y="211" width="60" height="30" as="geometry" />
        </mxCell>
        <mxCell id="bJ0Dz_TX7vE_drOLoEJE-89" value="samtools idxstats" style="text;html=1;strokeColor=none;fillColor=none;align=center;verticalAlign=middle;whiteSpace=wrap;rounded=0;" vertex="1" parent="1">
          <mxGeometry x="-180" y="296" width="60" height="30" as="geometry" />
        </mxCell>
        <mxCell id="bJ0Dz_TX7vE_drOLoEJE-91" value="" style="ellipse;whiteSpace=wrap;html=1;aspect=fixed;rounded=1;rotation=0;strokeWidth=2;" vertex="1" parent="1">
          <mxGeometry x="-990" y="249.99999999999991" width="20" height="20" as="geometry" />
        </mxCell>
        <mxCell id="bJ0Dz_TX7vE_drOLoEJE-107" value="" style="endArrow=none;html=1;rounded=1;strokeWidth=2;entryX=0;entryY=0.5;entryDx=0;entryDy=0;" edge="1" parent="1">
          <mxGeometry width="50" height="50" relative="1" as="geometry">
            <mxPoint x="-970" y="259.5" as="sourcePoint" />
            <mxPoint x="-910" y="260" as="targetPoint" />
          </mxGeometry>
        </mxCell>
        <mxCell id="bJ0Dz_TX7vE_drOLoEJE-108" value="" style="endArrow=none;html=1;rounded=1;strokeWidth=2;entryX=0;entryY=0.5;entryDx=0;entryDy=0;" edge="1" parent="1">
          <mxGeometry width="50" height="50" relative="1" as="geometry">
            <mxPoint x="-890" y="259.75" as="sourcePoint" />
            <mxPoint x="-805" y="260" as="targetPoint" />
          </mxGeometry>
        </mxCell>
        <mxCell id="bJ0Dz_TX7vE_drOLoEJE-109" value="" style="endArrow=none;html=1;rounded=1;strokeWidth=2;entryX=0;entryY=0.5;entryDx=0;entryDy=0;" edge="1" parent="1">
          <mxGeometry width="50" height="50" relative="1" as="geometry">
            <mxPoint x="-785" y="259.84" as="sourcePoint" />
            <mxPoint x="-705" y="260" as="targetPoint" />
          </mxGeometry>
        </mxCell>
        <mxCell id="bJ0Dz_TX7vE_drOLoEJE-110" value="" style="endArrow=none;html=1;rounded=1;strokeWidth=2;" edge="1" parent="1">
          <mxGeometry width="50" height="50" relative="1" as="geometry">
            <mxPoint x="-685" y="259.84" as="sourcePoint" />
            <mxPoint x="-593" y="260" as="targetPoint" />
          </mxGeometry>
        </mxCell>
        <mxCell id="bJ0Dz_TX7vE_drOLoEJE-111" value="" style="endArrow=none;html=1;rounded=1;strokeWidth=2;entryX=0;entryY=0.5;entryDx=0;entryDy=0;" edge="1" parent="1">
          <mxGeometry width="50" height="50" relative="1" as="geometry">
            <mxPoint x="-573" y="259.84" as="sourcePoint" />
            <mxPoint x="-490" y="260" as="targetPoint" />
          </mxGeometry>
        </mxCell>
        <mxCell id="bJ0Dz_TX7vE_drOLoEJE-112" value="" style="endArrow=none;html=1;rounded=1;strokeWidth=2;entryX=0;entryY=0.5;entryDx=0;entryDy=0;" edge="1" parent="1">
          <mxGeometry width="50" height="50" relative="1" as="geometry">
            <mxPoint x="-470" y="259.84" as="sourcePoint" />
            <mxPoint x="-390" y="260" as="targetPoint" />
          </mxGeometry>
        </mxCell>
        <mxCell id="bJ0Dz_TX7vE_drOLoEJE-113" value="" style="endArrow=none;html=1;rounded=1;strokeWidth=2;entryX=0;entryY=0.5;entryDx=0;entryDy=0;" edge="1" parent="1">
          <mxGeometry width="50" height="50" relative="1" as="geometry">
            <mxPoint x="-370" y="259.84" as="sourcePoint" />
            <mxPoint x="-280" y="260" as="targetPoint" />
          </mxGeometry>
        </mxCell>
        <mxCell id="bJ0Dz_TX7vE_drOLoEJE-120" value="" style="endArrow=none;html=1;rounded=1;strokeWidth=2;entryX=0;entryY=0.5;entryDx=0;entryDy=0;" edge="1" parent="1">
          <mxGeometry width="50" height="50" relative="1" as="geometry">
            <mxPoint x="-260" y="260" as="sourcePoint" />
            <mxPoint x="-160" y="260" as="targetPoint" />
          </mxGeometry>
        </mxCell>
        <mxCell id="bJ0Dz_TX7vE_drOLoEJE-127" value="" style="ellipse;whiteSpace=wrap;html=1;aspect=fixed;rounded=1;rotation=0;strokeWidth=2;" vertex="1" parent="1">
          <mxGeometry x="-990" y="163" width="20" height="20" as="geometry" />
        </mxCell>
        <mxCell id="bJ0Dz_TX7vE_drOLoEJE-128" value="" style="endArrow=none;html=1;rounded=1;strokeWidth=2;entryX=0;entryY=0.5;entryDx=0;entryDy=0;" edge="1" parent="1">
          <mxGeometry width="50" height="50" relative="1" as="geometry">
            <mxPoint x="-970" y="172.67" as="sourcePoint" />
            <mxPoint x="-805" y="260" as="targetPoint" />
            <Array as="points">
              <mxPoint x="-860" y="173" />
            </Array>
          </mxGeometry>
        </mxCell>
        <mxCell id="bJ0Dz_TX7vE_drOLoEJE-129" value="" style="endArrow=none;html=1;rounded=1;strokeWidth=2;strokeColor=#7EB2DD;exitX=1;exitY=0.5;exitDx=0;exitDy=0;" edge="1" parent="1" source="bJ0Dz_TX7vE_drOLoEJE-179">
          <mxGeometry width="50" height="50" relative="1" as="geometry">
            <mxPoint x="-1050" y="360" as="sourcePoint" />
            <mxPoint x="-910" y="260" as="targetPoint" />
            <Array as="points">
              <mxPoint x="-960" y="347" />
            </Array>
          </mxGeometry>
        </mxCell>
        <mxCell id="bJ0Dz_TX7vE_drOLoEJE-130" value="" style="endArrow=none;html=1;rounded=1;strokeWidth=2;strokeColor=#7EB2DD;entryX=-0.021;entryY=0.597;entryDx=0;entryDy=0;entryPerimeter=0;exitX=0.973;exitY=0.584;exitDx=0;exitDy=0;exitPerimeter=0;" edge="1" parent="1">
          <mxGeometry width="50" height="50" relative="1" as="geometry">
            <mxPoint x="-890.54" y="261.68" as="sourcePoint" />
            <mxPoint x="-805.42" y="261.94" as="targetPoint" />
          </mxGeometry>
        </mxCell>
        <mxCell id="bJ0Dz_TX7vE_drOLoEJE-139" value="" style="endArrow=none;html=1;rounded=1;strokeWidth=2;strokeColor=#7EB2DD;exitX=0.973;exitY=0.584;exitDx=0;exitDy=0;exitPerimeter=0;entryX=-0.021;entryY=0.59;entryDx=0;entryDy=0;entryPerimeter=0;" edge="1" parent="1">
          <mxGeometry width="50" height="50" relative="1" as="geometry">
            <mxPoint x="-786" y="261.93" as="sourcePoint" />
            <mxPoint x="-705.4200000000001" y="261.8" as="targetPoint" />
          </mxGeometry>
        </mxCell>
        <mxCell id="bJ0Dz_TX7vE_drOLoEJE-141" value="" style="endArrow=none;html=1;rounded=1;strokeWidth=2;strokeColor=#7EB2DD;exitX=0.973;exitY=0.584;exitDx=0;exitDy=0;exitPerimeter=0;entryX=0.009;entryY=0.604;entryDx=0;entryDy=0;entryPerimeter=0;" edge="1" parent="1">
          <mxGeometry width="50" height="50" relative="1" as="geometry">
            <mxPoint x="-685" y="261.93" as="sourcePoint" />
            <mxPoint x="-592.82" y="262.08" as="targetPoint" />
          </mxGeometry>
        </mxCell>
        <mxCell id="bJ0Dz_TX7vE_drOLoEJE-142" value="" style="endArrow=none;html=1;rounded=1;strokeWidth=2;strokeColor=#7EB2DD;" edge="1" parent="1">
          <mxGeometry width="50" height="50" relative="1" as="geometry">
            <mxPoint x="-573" y="261.93" as="sourcePoint" />
            <mxPoint x="-490" y="262" as="targetPoint" />
          </mxGeometry>
        </mxCell>
        <mxCell id="bJ0Dz_TX7vE_drOLoEJE-143" value="" style="endArrow=none;html=1;rounded=1;strokeWidth=2;strokeColor=#7EB2DD;" edge="1" parent="1">
          <mxGeometry width="50" height="50" relative="1" as="geometry">
            <mxPoint x="-470" y="261.93" as="sourcePoint" />
            <mxPoint x="-390" y="262" as="targetPoint" />
          </mxGeometry>
        </mxCell>
        <mxCell id="bJ0Dz_TX7vE_drOLoEJE-144" value="" style="endArrow=none;html=1;rounded=1;strokeWidth=2;strokeColor=#7EB2DD;entryX=-0.001;entryY=0.604;entryDx=0;entryDy=0;entryPerimeter=0;" edge="1" parent="1">
          <mxGeometry width="50" height="50" relative="1" as="geometry">
            <mxPoint x="-370" y="261.93" as="sourcePoint" />
            <mxPoint x="-280.02" y="262.08" as="targetPoint" />
          </mxGeometry>
        </mxCell>
        <mxCell id="bJ0Dz_TX7vE_drOLoEJE-145" value="" style="endArrow=none;html=1;rounded=1;strokeWidth=2;strokeColor=#7EB2DD;exitX=1.016;exitY=0.6;exitDx=0;exitDy=0;exitPerimeter=0;" edge="1" parent="1">
          <mxGeometry width="50" height="50" relative="1" as="geometry">
            <mxPoint x="-259.68000000000006" y="262" as="sourcePoint" />
            <mxPoint x="-160" y="262" as="targetPoint" />
          </mxGeometry>
        </mxCell>
        <mxCell id="bJ0Dz_TX7vE_drOLoEJE-154" value="" style="endArrow=none;html=1;rounded=1;strokeWidth=2;exitX=0.5;exitY=0;exitDx=0;exitDy=0;" edge="1" parent="1">
          <mxGeometry width="50" height="50" relative="1" as="geometry">
            <mxPoint x="-270" y="250" as="sourcePoint" />
            <mxPoint x="-270" y="170" as="targetPoint" />
          </mxGeometry>
        </mxCell>
        <mxCell id="bJ0Dz_TX7vE_drOLoEJE-156" value="" style="endArrow=none;html=1;rounded=1;strokeWidth=2;entryX=0;entryY=0.5;entryDx=0;entryDy=0;" edge="1" parent="1">
          <mxGeometry width="50" height="50" relative="1" as="geometry">
            <mxPoint x="-271" y="169.86" as="sourcePoint" />
            <mxPoint x="-160" y="170" as="targetPoint" />
          </mxGeometry>
        </mxCell>
        <mxCell id="bJ0Dz_TX7vE_drOLoEJE-157" value="" style="endArrow=none;html=1;rounded=1;strokeWidth=2;exitX=0.5;exitY=1;exitDx=0;exitDy=0;" edge="1" parent="1">
          <mxGeometry width="50" height="50" relative="1" as="geometry">
            <mxPoint x="-270" y="270" as="sourcePoint" />
            <mxPoint x="-270" y="340" as="targetPoint" />
          </mxGeometry>
        </mxCell>
        <mxCell id="bJ0Dz_TX7vE_drOLoEJE-158" value="" style="endArrow=none;html=1;rounded=1;strokeWidth=2;entryX=0;entryY=0.5;entryDx=0;entryDy=0;" edge="1" parent="1">
          <mxGeometry width="50" height="50" relative="1" as="geometry">
            <mxPoint x="-271" y="339.86" as="sourcePoint" />
            <mxPoint x="-160" y="340" as="targetPoint" />
          </mxGeometry>
        </mxCell>
        <mxCell id="bJ0Dz_TX7vE_drOLoEJE-161" value="" style="endArrow=none;html=1;rounded=1;strokeWidth=2;strokeColor=#7EB2DD;entryX=0.006;entryY=0.431;entryDx=0;entryDy=0;entryPerimeter=0;" edge="1" parent="1">
          <mxGeometry width="50" height="50" relative="1" as="geometry">
            <mxPoint x="-269" y="337.95" as="sourcePoint" />
            <mxPoint x="-159.87999999999988" y="338.62" as="targetPoint" />
          </mxGeometry>
        </mxCell>
        <mxCell id="bJ0Dz_TX7vE_drOLoEJE-162" value="" style="endArrow=none;html=1;rounded=1;strokeWidth=2;strokeColor=#7EB2DD;" edge="1" parent="1">
          <mxGeometry width="50" height="50" relative="1" as="geometry">
            <mxPoint x="-268" y="337" as="sourcePoint" />
            <mxPoint x="-268" y="270" as="targetPoint" />
          </mxGeometry>
        </mxCell>
        <mxCell id="bJ0Dz_TX7vE_drOLoEJE-163" value="" style="endArrow=none;html=1;rounded=1;strokeWidth=2;strokeColor=#7EB2DD;exitX=0.549;exitY=-0.023;exitDx=0;exitDy=0;exitPerimeter=0;" edge="1" parent="1">
          <mxGeometry width="50" height="50" relative="1" as="geometry">
            <mxPoint x="-268.02" y="249.54000000000002" as="sourcePoint" />
            <mxPoint x="-268" y="172" as="targetPoint" />
          </mxGeometry>
        </mxCell>
        <mxCell id="bJ0Dz_TX7vE_drOLoEJE-165" value="" style="endArrow=none;html=1;rounded=1;strokeWidth=2;strokeColor=#7EB2DD;" edge="1" parent="1">
          <mxGeometry width="50" height="50" relative="1" as="geometry">
            <mxPoint x="-269" y="172" as="sourcePoint" />
            <mxPoint x="-159" y="172" as="targetPoint" />
          </mxGeometry>
        </mxCell>
        <mxCell id="bJ0Dz_TX7vE_drOLoEJE-166" value="" style="ellipse;whiteSpace=wrap;html=1;aspect=fixed;rounded=1;rotation=0;strokeWidth=2;" vertex="1" parent="1">
          <mxGeometry x="-160" y="160" width="20" height="20" as="geometry" />
        </mxCell>
        <mxCell id="bJ0Dz_TX7vE_drOLoEJE-167" value="" style="ellipse;whiteSpace=wrap;html=1;aspect=fixed;rounded=1;rotation=0;strokeWidth=2;" vertex="1" parent="1">
          <mxGeometry x="-160" y="250" width="20" height="20" as="geometry" />
        </mxCell>
        <mxCell id="bJ0Dz_TX7vE_drOLoEJE-169" value="" style="ellipse;whiteSpace=wrap;html=1;aspect=fixed;rounded=1;rotation=0;strokeWidth=2;" vertex="1" parent="1">
          <mxGeometry x="-160" y="330" width="20" height="20" as="geometry" />
        </mxCell>
        <mxCell id="bJ0Dz_TX7vE_drOLoEJE-170" value="" style="ellipse;whiteSpace=wrap;html=1;aspect=fixed;rounded=1;rotation=0;strokeWidth=2;" vertex="1" parent="1">
          <mxGeometry x="-280" y="250" width="20" height="20" as="geometry" />
        </mxCell>
        <mxCell id="bJ0Dz_TX7vE_drOLoEJE-171" value="" style="ellipse;whiteSpace=wrap;html=1;aspect=fixed;rounded=1;rotation=0;strokeWidth=2;" vertex="1" parent="1">
          <mxGeometry x="-390" y="250" width="20" height="20" as="geometry" />
        </mxCell>
        <mxCell id="bJ0Dz_TX7vE_drOLoEJE-172" value="" style="ellipse;whiteSpace=wrap;html=1;aspect=fixed;rounded=1;rotation=0;strokeWidth=2;" vertex="1" parent="1">
          <mxGeometry x="-490" y="250" width="20" height="20" as="geometry" />
        </mxCell>
        <mxCell id="bJ0Dz_TX7vE_drOLoEJE-173" value="" style="ellipse;whiteSpace=wrap;html=1;aspect=fixed;rounded=1;rotation=0;strokeWidth=2;" vertex="1" parent="1">
          <mxGeometry x="-593" y="250" width="20" height="20" as="geometry" />
        </mxCell>
        <mxCell id="bJ0Dz_TX7vE_drOLoEJE-174" value="" style="ellipse;whiteSpace=wrap;html=1;aspect=fixed;rounded=1;rotation=0;strokeWidth=2;" vertex="1" parent="1">
          <mxGeometry x="-705" y="250" width="20" height="20" as="geometry" />
        </mxCell>
        <mxCell id="bJ0Dz_TX7vE_drOLoEJE-175" value="" style="ellipse;whiteSpace=wrap;html=1;aspect=fixed;rounded=1;rotation=0;strokeWidth=2;" vertex="1" parent="1">
          <mxGeometry x="-805" y="250" width="20" height="20" as="geometry" />
        </mxCell>
        <mxCell id="bJ0Dz_TX7vE_drOLoEJE-176" value="" style="ellipse;whiteSpace=wrap;html=1;aspect=fixed;rounded=1;rotation=0;strokeWidth=2;" vertex="1" parent="1">
          <mxGeometry x="-910" y="250" width="20" height="20" as="geometry" />
        </mxCell>
        <mxCell id="bJ0Dz_TX7vE_drOLoEJE-177" value="" style="group;aspect=fixed;" vertex="1" connectable="0" parent="1">
          <mxGeometry x="-1140" y="300" width="70" height="77.78" as="geometry" />
        </mxCell>
        <mxCell id="bJ0Dz_TX7vE_drOLoEJE-178" value="" style="shape=note;whiteSpace=wrap;html=1;backgroundOutline=1;darkOpacity=0.05;rounded=1;size=20;strokeWidth=2;" vertex="1" parent="bJ0Dz_TX7vE_drOLoEJE-177">
          <mxGeometry x="3.888888888888889" width="62.22222222222222" height="77.78" as="geometry" />
        </mxCell>
        <mxCell id="bJ0Dz_TX7vE_drOLoEJE-179" value="&lt;p style=&quot;line-height: 100%;&quot;&gt;&lt;font size=&quot;1&quot; face=&quot;Maven Pro&quot; color=&quot;#ffffff&quot;&gt;&lt;b style=&quot;font-size: 18px;&quot;&gt;CRAM&lt;/b&gt;&lt;/font&gt;&lt;/p&gt;" style="rounded=1;whiteSpace=wrap;html=1;strokeWidth=2;fillColor=#000000;" vertex="1" parent="bJ0Dz_TX7vE_drOLoEJE-177">
          <mxGeometry y="31.112000000000002" width="70" height="31.112000000000002" as="geometry" />
        </mxCell>
        <mxCell id="bJ0Dz_TX7vE_drOLoEJE-182" value="" style="endArrow=none;html=1;rounded=1;strokeWidth=2;entryX=1;entryY=0.5;entryDx=0;entryDy=0;" edge="1" parent="1" target="bJ0Dz_TX7vE_drOLoEJE-45">
          <mxGeometry width="50" height="50" relative="1" as="geometry">
            <mxPoint x="-990" y="172" as="sourcePoint" />
            <mxPoint x="-1030" y="192" as="targetPoint" />
            <Array as="points">
              <mxPoint x="-1010" y="172" />
            </Array>
          </mxGeometry>
        </mxCell>
      </root>
    </mxGraphModel>
  </diagram>
</mxfile>
